<svg xmlns="http://www.w3.org/2000/svg" width="139.024" height="17.328" viewBox="0 0 139.024 17.328">
  <g id="Branding" transform="translate(-40 -33.936)">
    <path id="Path_4" data-name="Path 4" d="M2.184,0V-16.8h7.44a5.723,5.723,0,0,1,2.832.708,5.344,5.344,0,0,1,2,1.908,5.148,5.148,0,0,1,.732,2.736A5.291,5.291,0,0,1,14.46-8.7a5.346,5.346,0,0,1-2,1.956,5.648,5.648,0,0,1-2.832.72H5.664V0Zm9.528,0L7.44-7.584l3.7-.6L15.888.024ZM5.664-8.952H9.456a2.146,2.146,0,0,0,1.14-.3,1.976,1.976,0,0,0,.756-.84,2.723,2.723,0,0,0,.264-1.212,2.409,2.409,0,0,0-.312-1.248,2.138,2.138,0,0,0-.912-.828A3.074,3.074,0,0,0,9-13.68H5.664ZM26.112.24a8.852,8.852,0,0,1-3.4-.636,7.943,7.943,0,0,1-2.688-1.8,8.12,8.12,0,0,1-1.764-2.76,9.509,9.509,0,0,1-.624-3.492,8.887,8.887,0,0,1,.648-3.42A8.2,8.2,0,0,1,20.112-14.6a8.4,8.4,0,0,1,2.76-1.812,8.977,8.977,0,0,1,3.432-.648,8.776,8.776,0,0,1,2.364.324,7.8,7.8,0,0,1,2.136.948A6.93,6.93,0,0,1,32.472-14.3l-2.256,2.5a7.191,7.191,0,0,0-1.176-1,5.387,5.387,0,0,0-1.308-.648,4.562,4.562,0,0,0-1.452-.228,4.871,4.871,0,0,0-1.932.384,4.846,4.846,0,0,0-1.572,1.068,5.049,5.049,0,0,0-1.068,1.656,5.642,5.642,0,0,0-.4,2.148A5.867,5.867,0,0,0,21.7-6.252,4.719,4.719,0,0,0,22.776-4.6,4.789,4.789,0,0,0,24.444-3.54a5.965,5.965,0,0,0,2.148.372,5.15,5.15,0,0,0,1.488-.216,5.426,5.426,0,0,0,1.332-.6A5.637,5.637,0,0,0,30.5-4.872L32.28-2.064A6.063,6.063,0,0,1,30.708-.888a9.21,9.21,0,0,1-2.172.828A9.958,9.958,0,0,1,26.112.24ZM45.864,0V-16.8h3.6V0ZM35.28,0V-16.8h3.6V0Zm1.44-6.744.024-3.264H47.712v3.264ZM54.24,0V-16.8h6.624a5,5,0,0,1,2.352.54,4.072,4.072,0,0,1,1.62,1.5,4.1,4.1,0,0,1,.588,2.184A3.806,3.806,0,0,1,64.6-10.14a4.286,4.286,0,0,1-2.2,1.452l-.072-.456a5.385,5.385,0,0,1,2.088.816,4.49,4.49,0,0,1,1.392,1.464,3.74,3.74,0,0,1,.5,1.92,4.994,4.994,0,0,1-.384,1.98,4.757,4.757,0,0,1-1.08,1.572A4.78,4.78,0,0,1,63.2-.36,5.873,5.873,0,0,1,61.1,0Zm1.2-1.2h5.52a4.608,4.608,0,0,0,2.088-.456,3.532,3.532,0,0,0,1.428-1.26,3.325,3.325,0,0,0,.516-1.836,2.971,2.971,0,0,0-.54-1.752,3.606,3.606,0,0,0-1.476-1.2,5.043,5.043,0,0,0-2.136-.432h-5.4Zm0-8.136h5.28A3.729,3.729,0,0,0,62.5-9.744a3.138,3.138,0,0,0,1.212-1.116,2.942,2.942,0,0,0,.444-1.6,2.994,2.994,0,0,0-.924-2.256,3.536,3.536,0,0,0-2.556-.888H55.44ZM70.1,0V-16.8h9.768v1.2H71.3V-1.2h8.472V0Zm.576-8.064v-1.2H78.5v1.2ZM82.152,0l6.384-16.8h1.632L96.48,0H95.136L90.792-11.616q-.288-.744-.492-1.32t-.4-1.1q-.192-.528-.384-1.116t-.432-1.332H89.5q-.24.792-.444,1.392t-.408,1.14q-.2.54-.42,1.128t-.5,1.356L83.4,0Zm2.616-5.064.456-1.2h8.232l.456,1.2ZM99.672,0V-16.8h6.048a5.207,5.207,0,0,1,2.652.672,4.987,4.987,0,0,1,1.836,1.812,4.984,4.984,0,0,1,.672,2.58,4.874,4.874,0,0,1-.636,2.52,4.51,4.51,0,0,1-1.752,1.692,5.178,5.178,0,0,1-2.532.612h-5.088V0Zm10.464,0L105.96-7.224l1.008-.624L111.528,0Zm-9.264-8.112H106.1a3.59,3.59,0,0,0,1.824-.456,3.205,3.205,0,0,0,1.236-1.272,3.8,3.8,0,0,0,.444-1.848,4.012,4.012,0,0,0-.5-2.016,3.613,3.613,0,0,0-1.4-1.392,4.127,4.127,0,0,0-2.052-.5h-4.776ZM115.1.264a1.9,1.9,0,0,1-1.44-.528,2.1,2.1,0,0,1-.5-1.512,2.013,2.013,0,0,1,.54-1.452,1.856,1.856,0,0,1,1.4-.564,1.865,1.865,0,0,1,1.416.528,2.069,2.069,0,0,1,.5,1.488A2.073,2.073,0,0,1,116.5-.3,1.818,1.818,0,0,1,115.1.264Z" transform="translate(62 51)" fill="#fff"/>
    <path id="Path_2" data-name="Path 2" d="M20,.2V17H0Z" transform="translate(40 34)" fill="#fff"/>
  </g>
</svg>
